<?xml version="1.0" encoding="UTF-8"?><svg id="_レイヤー_2" xmlns="http://www.w3.org/2000/svg" viewBox="0 0 488.27 274.6"><defs><style>.cls-1{fill:#fff;}</style></defs><g id="CONTENTS"><g><polygon class="cls-1" points="248.27 0 248.27 58.47 335.71 58.47 335.71 274.6 400.48 274.6 400.48 58.47 488.27 58.47 488.27 0 248.27 0"/><polygon class="cls-1" points="235.62 183.67 276.54 135.93 195.27 135.93 118.61 223.72 81.86 181.97 120.13 137.3 81.7 92.46 120.52 49.36 159.73 93.36 239.91 93.36 159.89 0 81.2 0 0 91.98 38.85 137.3 0 182.61 79.64 274.6 158.18 274.6 195.09 231.1 235.01 274.6 315.54 274.6 235.62 183.67"/></g></g></svg>