<?xml version="1.0" encoding="UTF-8"?><svg id="b" xmlns="http://www.w3.org/2000/svg" width="923.7" height="116.77" viewBox="0 0 923.7 116.77"><g id="c"><path d="M58.38,0C26.14,0,0,26.14,0,58.38s26.14,58.38,58.38,58.38,58.38-26.14,58.38-58.38S90.63,0,58.38,0Zm0,5.97c15.58,0,29.59,6.84,39.19,17.67h-29.24c-9.19-8.04-18.5-13.11-26.77-14.88,5.28-1.79,10.93-2.78,16.81-2.78Zm-10.42,81.19H19.52L68.81,29.6h28.44l-49.28,57.55Zm37.02-34.05c3.11,5.29,5.56,10.58,7.31,15.65-6.84,5.32-15.5,10.13-25.24,13.68-3.24,1.18-6.5,2.18-9.75,3.01l27.69-32.34Zm-53.2,10.55c-3.15-5.34-5.63-10.65-7.4-15.72,8.18-6.51,21.39-13.2,35.08-16.61L31.78,63.66Zm9.79-32.54c-8.12,3.63-12.91,6.35-19.01,10.73-2.92-11.6-1.4-21.78,5.06-25.86,7.33-4.63,19.98-1.09,32.91,8.94-5.15,1.07-14.1,4.03-18.96,6.2Zm-26.23-2.6c-.35,5.19,.37,11.08,2.15,17.35-3.7,3.09-8.37,8.06-11.5,13.56-.17-12.18,3.49-22.5,9.35-30.91Zm-1.98,56.66c-1.94-3.25-3.54-6.73-4.75-10.39-.57-2.56-.35-5.37,.69-8.31,2.17-6.13,7.41-11.97,10.24-14.41,2.02,5.33,4.74,10.84,8.15,16.37l-14.34,16.74Zm45.03,25.62c-15.58,0-29.59-6.84-39.19-17.67h29.24c9.19,8.04,18.5,13.11,26.77,14.88-5.28,1.8-10.94,2.78-16.82,2.78Zm30.76-10.01c-5.84,3.79-17.5,2.91-32.9-8.94,12.62-2.71,28.59-9.79,37.87-16.89,2.94,11.78,1.4,21.68-4.98,25.82Zm-.07-52.46l14.33-16.74c.86,1.45,1.66,2.94,2.39,4.47,.68,1.43,1.84,4.4,1.84,4.4,2.56,7.05-1.78,15.93-10.45,24.12-2.02-5.29-4.73-10.76-8.11-16.25Zm10.2,22.52c5.02-4.37,8.93-9.03,11.49-13.72,.47,11.07-3.38,22.56-9.32,31.09,.35-5.19-.38-11.09-2.17-17.37Z" fill="#fff"/><g><path d="M162.91,41.1c-1.6,1.96-3.37,3.39-5.31,4.29-1.94,.9-4.17,1.35-6.69,1.35-1.96,0-3.77-.29-5.43-.87-1.66-.58-3.09-1.41-4.29-2.49-1.2-1.08-2.13-2.41-2.79-3.99-.66-1.58-.99-3.37-.99-5.37,0-1.52,.28-2.9,.84-4.14,.56-1.24,1.3-2.37,2.22-3.39,.92-1.02,1.97-1.93,3.15-2.73,1.18-.8,2.39-1.52,3.63-2.16-.56-.72-1.1-1.43-1.62-2.13-.52-.7-.98-1.43-1.38-2.19-.4-.76-.72-1.56-.96-2.4-.24-.84-.36-1.72-.36-2.64,0-1.56,.27-2.96,.81-4.2,.54-1.24,1.29-2.31,2.25-3.21,.96-.9,2.08-1.59,3.36-2.07,1.28-.48,2.64-.72,4.08-.72,1.36,0,2.69,.21,3.99,.63,1.3,.42,2.44,1.06,3.42,1.92,.98,.86,1.77,1.93,2.37,3.21,.6,1.28,.9,2.78,.9,4.5,0,1.28-.21,2.46-.63,3.54-.42,1.08-.98,2.07-1.68,2.97-.7,.9-1.52,1.71-2.46,2.43-.94,.72-1.93,1.36-2.97,1.92l6.66,8.04c.24-.68,.48-1.46,.72-2.34,.24-.88,.44-2.02,.6-3.42h6c-.2,1.88-.57,3.72-1.11,5.52-.54,1.8-1.29,3.46-2.25,4.98l8.22,9.96h-8.4l-3.9-4.8Zm-12.06-15c-.64,.4-1.34,.8-2.1,1.2-.76,.4-1.47,.9-2.13,1.5-.66,.6-1.22,1.32-1.68,2.16-.46,.84-.69,1.9-.69,3.18,0,2.32,.65,4.1,1.95,5.34,1.3,1.24,2.95,1.86,4.95,1.86,1.24,0,2.3-.17,3.18-.51,.88-.34,1.63-.75,2.25-1.23,.62-.48,1.14-1,1.56-1.56,.42-.56,.79-1.06,1.11-1.5l-8.4-10.44Zm2.76-18.96c-1.28,0-2.36,.43-3.24,1.29-.88,.86-1.32,2.01-1.32,3.45,0,.72,.13,1.39,.39,2.01,.26,.62,.58,1.22,.96,1.8,.38,.58,.8,1.15,1.26,1.71,.46,.56,.89,1.1,1.29,1.62,.64-.44,1.26-.89,1.86-1.35,.6-.46,1.14-.96,1.62-1.5,.48-.54,.86-1.15,1.14-1.83,.28-.68,.42-1.44,.42-2.28,0-1.4-.4-2.57-1.2-3.51-.8-.94-1.86-1.41-3.18-1.41Z" fill="#fff"/><path d="M174.85,3.06h34.68v6.48h-13.62V45.9h-7.5V9.54h-13.56V3.06Z" fill="#fff"/><path d="M214.51,3.06h30.84v6.48h-23.34v11.22h21.6v6.12h-21.6v12.54h23.76v6.48h-31.26V3.06Z" fill="#fff"/><path d="M263.77,3.06h7.98l16.5,42.84h-8.04l-4.02-11.34h-17.1l-4.02,11.34h-7.74L263.77,3.06Zm-2.64,25.8h13.08l-6.42-18.42h-.18l-6.48,18.42Z" fill="#fff"/><path d="M292.21,3.06h10.56l11.82,33.54h.12l11.52-33.54h10.44V45.9h-7.14V12.84h-.12l-11.88,33.06h-6.18l-11.88-33.06h-.12V45.9h-7.14V3.06Z" fill="#fff"/><path d="M380.59,2.04c3.2,0,6.07,.6,8.61,1.8,2.54,1.2,4.69,2.82,6.45,4.86,1.76,2.04,3.11,4.42,4.05,7.14,.94,2.72,1.41,5.6,1.41,8.64s-.47,5.98-1.41,8.7c-.94,2.72-2.29,5.1-4.05,7.14-1.76,2.04-3.91,3.65-6.45,4.83-2.54,1.18-5.41,1.77-8.61,1.77s-6.07-.59-8.61-1.77c-2.54-1.18-4.69-2.79-6.45-4.83-1.76-2.04-3.11-4.42-4.05-7.14-.94-2.72-1.41-5.62-1.41-8.7s.47-5.92,1.41-8.64c.94-2.72,2.29-5.1,4.05-7.14,1.76-2.04,3.91-3.66,6.45-4.86,2.54-1.2,5.41-1.8,8.61-1.8Zm0,6.12c-2.28,0-4.25,.46-5.91,1.38-1.66,.92-3.01,2.15-4.05,3.69-1.04,1.54-1.81,3.29-2.31,5.25-.5,1.96-.75,3.96-.75,6s.25,4.04,.75,6c.5,1.96,1.27,3.71,2.31,5.25,1.04,1.54,2.39,2.77,4.05,3.69,1.66,.92,3.63,1.38,5.91,1.38s4.25-.46,5.91-1.38c1.66-.92,3.01-2.15,4.05-3.69,1.04-1.54,1.81-3.29,2.31-5.25,.5-1.96,.75-3.96,.75-6s-.25-4.04-.75-6c-.5-1.96-1.27-3.71-2.31-5.25-1.04-1.54-2.39-2.77-4.05-3.69-1.66-.92-3.63-1.38-5.91-1.38Z" fill="#fff"/><path d="M407.95,3.06h29.58v6.48h-22.08v11.22h19.38v6.12h-19.38v19.02h-7.5V3.06Z" fill="#fff"/><path d="M443.53,3.06h29.58v6.48h-22.08v11.22h19.38v6.12h-19.38v19.02h-7.5V3.06Z" fill="#fff"/><path d="M526.03,16.68c-.32-1.24-.76-2.38-1.32-3.42-.56-1.04-1.28-1.94-2.16-2.7-.88-.76-1.91-1.35-3.09-1.77-1.18-.42-2.55-.63-4.11-.63-2.28,0-4.25,.46-5.91,1.38-1.66,.92-3.01,2.15-4.05,3.69-1.04,1.54-1.81,3.29-2.31,5.25-.5,1.96-.75,3.96-.75,6s.25,4.04,.75,6c.5,1.96,1.27,3.71,2.31,5.25,1.04,1.54,2.39,2.77,4.05,3.69,1.66,.92,3.63,1.38,5.91,1.38,1.68,0,3.16-.29,4.44-.87,1.28-.58,2.38-1.38,3.3-2.4,.92-1.02,1.64-2.21,2.16-3.57,.52-1.36,.86-2.82,1.02-4.38h7.32c-.16,2.56-.71,4.9-1.65,7.02-.94,2.12-2.21,3.95-3.81,5.49-1.6,1.54-3.48,2.73-5.64,3.57-2.16,.84-4.54,1.26-7.14,1.26-3.2,0-6.07-.59-8.61-1.77-2.54-1.18-4.69-2.79-6.45-4.83-1.76-2.04-3.11-4.42-4.05-7.14-.94-2.72-1.41-5.62-1.41-8.7s.47-5.92,1.41-8.64c.94-2.72,2.29-5.1,4.05-7.14,1.76-2.04,3.91-3.66,6.45-4.86,2.54-1.2,5.41-1.8,8.61-1.8,2.4,0,4.66,.33,6.78,.99,2.12,.66,3.99,1.62,5.61,2.88,1.62,1.26,2.93,2.79,3.93,4.59,1,1.8,1.62,3.86,1.86,6.18h-7.5Z" fill="#fff"/><path d="M540.43,3.06h7.5V45.9h-7.5V3.06Z" fill="#fff"/><path d="M480.43,3.06h7.5V45.9h-7.5V3.06Z" fill="#fff"/><path d="M568.57,3.06h7.98l16.5,42.84h-8.04l-4.02-11.34h-17.1l-4.02,11.34h-7.74l16.44-42.84Zm-2.64,25.8h13.08l-6.42-18.42h-.18l-6.48,18.42Z" fill="#fff"/><path d="M597.13,3.06h7.5V39.42h21.78v6.48h-29.28V3.06Z" fill="#fff"/><path d="M648.25,3.06h29.58v6.48h-22.08v11.22h19.38v6.12h-19.38v19.02h-7.5V3.06Z" fill="#fff"/><path d="M695.29,3.06h7.98l16.5,42.84h-8.04l-4.02-11.34h-17.1l-4.02,11.34h-7.74l16.44-42.84Zm-2.64,25.8h13.08l-6.42-18.42h-.18l-6.48,18.42Z" fill="#fff"/><path d="M723.55,3.06h7.92l19.56,31.56h.12V3.06h7.14V45.9h-7.92l-19.5-31.5h-.18v31.5h-7.14V3.06Z" fill="#fff"/><path d="M796.09,16.68c-.32-1.24-.76-2.38-1.32-3.42-.56-1.04-1.28-1.94-2.16-2.7-.88-.76-1.91-1.35-3.09-1.77-1.18-.42-2.55-.63-4.11-.63-2.28,0-4.25,.46-5.91,1.38-1.66,.92-3.01,2.15-4.05,3.69-1.04,1.54-1.81,3.29-2.31,5.25-.5,1.96-.75,3.96-.75,6s.25,4.04,.75,6c.5,1.96,1.27,3.71,2.31,5.25,1.04,1.54,2.39,2.77,4.05,3.69,1.66,.92,3.63,1.38,5.91,1.38,1.68,0,3.16-.29,4.44-.87,1.28-.58,2.38-1.38,3.3-2.4,.92-1.02,1.64-2.21,2.16-3.57,.52-1.36,.86-2.82,1.02-4.38h7.32c-.16,2.56-.71,4.9-1.65,7.02-.94,2.12-2.21,3.95-3.81,5.49-1.6,1.54-3.48,2.73-5.64,3.57-2.16,.84-4.54,1.26-7.14,1.26-3.2,0-6.07-.59-8.61-1.77-2.54-1.18-4.69-2.79-6.45-4.83-1.76-2.04-3.11-4.42-4.05-7.14-.94-2.72-1.41-5.62-1.41-8.7s.47-5.92,1.41-8.64c.94-2.72,2.29-5.1,4.05-7.14,1.76-2.04,3.91-3.66,6.45-4.86,2.54-1.2,5.41-1.8,8.61-1.8,2.4,0,4.66,.33,6.78,.99,2.12,.66,3.99,1.62,5.61,2.88,1.62,1.26,2.93,2.79,3.93,4.59,1,1.8,1.62,3.86,1.86,6.18h-7.5Z" fill="#fff"/><path d="M810.48,3.06h7.5V39.42h21.78v6.48h-29.28V3.06Z" fill="#fff"/><path d="M844.44,3.06h7.5V28.02c0,1.44,.07,2.9,.21,4.38,.14,1.48,.54,2.81,1.2,3.99s1.66,2.15,3,2.91c1.34,.76,3.23,1.14,5.67,1.14s4.33-.38,5.67-1.14c1.34-.76,2.34-1.73,3-2.91s1.06-2.51,1.2-3.99c.14-1.48,.21-2.94,.21-4.38V3.06h7.5V30.48c0,2.76-.42,5.16-1.26,7.2-.84,2.04-2.03,3.75-3.57,5.13-1.54,1.38-3.39,2.41-5.55,3.09-2.16,.68-4.56,1.02-7.2,1.02s-5.04-.34-7.2-1.02-4.01-1.71-5.55-3.09c-1.54-1.38-2.73-3.09-3.57-5.13s-1.26-4.44-1.26-7.2V3.06Z" fill="#fff"/><path d="M888.24,3.06h20.82c3.84,0,6.92,.88,9.24,2.64,2.32,1.76,3.48,4.42,3.48,7.98,0,2.16-.53,4.01-1.59,5.55-1.06,1.54-2.57,2.73-4.53,3.57v.12c2.64,.56,4.64,1.81,6,3.75,1.36,1.94,2.04,4.37,2.04,7.29,0,1.68-.3,3.25-.9,4.71-.6,1.46-1.54,2.72-2.82,3.78-1.28,1.06-2.92,1.9-4.92,2.52-2,.62-4.38,.93-7.14,.93h-19.68V3.06Zm7.5,17.94h12.24c1.8,0,3.3-.51,4.5-1.53,1.2-1.02,1.8-2.49,1.8-4.41,0-2.16-.54-3.68-1.62-4.56-1.08-.88-2.64-1.32-4.68-1.32h-12.24v11.82Zm0,18.78h13.26c2.28,0,4.05-.59,5.31-1.77s1.89-2.85,1.89-5.01-.63-3.75-1.89-4.89-3.03-1.71-5.31-1.71h-13.26v13.38Z" fill="#fff"/><path d="M140.05,72.06h7.5v36.36h21.78v6.48h-29.28v-42.84Z" fill="#fff"/><path d="M174.01,72.06h7.5v24.96c0,1.44,.07,2.9,.21,4.38,.14,1.48,.54,2.81,1.2,3.99,.66,1.18,1.66,2.15,3,2.91,1.34,.76,3.23,1.14,5.67,1.14s4.33-.38,5.67-1.14c1.34-.76,2.34-1.73,3-2.91s1.06-2.51,1.2-3.99c.14-1.48,.21-2.94,.21-4.38v-24.96h7.5v27.42c0,2.76-.42,5.16-1.26,7.2s-2.03,3.75-3.57,5.13c-1.54,1.38-3.39,2.41-5.55,3.09-2.16,.68-4.56,1.02-7.2,1.02s-5.04-.34-7.2-1.02-4.01-1.71-5.55-3.09c-1.54-1.38-2.73-3.09-3.57-5.13-.84-2.04-1.26-4.44-1.26-7.2v-27.42Z" fill="#fff"/><path d="M217.51,72.06h7.92l19.56,31.56h.12v-31.56h7.14v42.84h-7.92l-19.5-31.5h-.18v31.5h-7.14v-42.84Z" fill="#fff"/><path d="M261.13,72.06h30.84v6.48h-23.34v11.22h21.6v6.12h-21.6v12.54h23.76v6.48h-31.26v-42.84Zm17.46-12.72h8.1l-8.52,8.58h-4.98l5.4-8.58Z" fill="#fff"/><path d="M315.49,72.06h10.56l11.82,33.54h.12l11.52-33.54h10.44v42.84h-7.14v-33.06h-.12l-11.88,33.06h-6.18l-11.88-33.06h-.12v33.06h-7.14v-42.84Z" fill="#fff"/><path d="M368.95,72.06h30.84v6.48h-23.34v11.22h21.6v6.12h-21.6v12.54h23.76v6.48h-31.26v-42.84Z" fill="#fff"/><path d="M406.63,72.06h10.56l11.82,33.54h.12l11.52-33.54h10.44v42.84h-7.14v-33.06h-.12l-11.88,33.06h-6.18l-11.88-33.06h-.12v33.06h-7.14v-42.84Z" fill="#fff"/><path d="M460.09,72.06h20.82c3.84,0,6.92,.88,9.24,2.64,2.32,1.76,3.48,4.42,3.48,7.98,0,2.16-.53,4.01-1.59,5.55-1.06,1.54-2.57,2.73-4.53,3.57v.12c2.64,.56,4.64,1.81,6,3.75,1.36,1.94,2.04,4.37,2.04,7.29,0,1.68-.3,3.25-.9,4.71-.6,1.46-1.54,2.72-2.82,3.78-1.28,1.06-2.92,1.9-4.92,2.52-2,.62-4.38,.93-7.14,.93h-19.68v-42.84Zm7.5,17.94h12.24c1.8,0,3.3-.51,4.5-1.53,1.2-1.02,1.8-2.49,1.8-4.41,0-2.16-.54-3.68-1.62-4.56-1.08-.88-2.64-1.32-4.68-1.32h-12.24v11.82Zm0,18.78h13.26c2.28,0,4.05-.59,5.31-1.77s1.89-2.85,1.89-5.01-.63-3.75-1.89-4.89-3.03-1.71-5.31-1.71h-13.26v13.38Z" fill="#fff"/><path d="M502.33,72.06h30.84v6.48h-23.34v11.22h21.6v6.12h-21.6v12.54h23.76v6.48h-31.26v-42.84Z" fill="#fff"/><path d="M540.13,72.06h20.46c4.72,0,8.26,1.02,10.62,3.06s3.54,4.88,3.54,8.52c0,2.04-.3,3.73-.9,5.07-.6,1.34-1.3,2.42-2.1,3.24-.8,.82-1.59,1.41-2.37,1.77-.78,.36-1.35,.6-1.71,.72v.12c.64,.08,1.33,.28,2.07,.6,.74,.32,1.43,.83,2.07,1.53,.64,.7,1.17,1.61,1.59,2.73,.42,1.12,.63,2.52,.63,4.2,0,2.52,.19,4.81,.57,6.87,.38,2.06,.97,3.53,1.77,4.41h-8.04c-.56-.92-.89-1.94-.99-3.06-.1-1.12-.15-2.2-.15-3.24,0-1.96-.12-3.65-.36-5.07-.24-1.42-.68-2.6-1.32-3.54-.64-.94-1.51-1.63-2.61-2.07-1.1-.44-2.51-.66-4.23-.66h-11.04v17.64h-7.5v-42.84Zm7.5,19.5h12.3c2.4,0,4.22-.57,5.46-1.71,1.24-1.14,1.86-2.85,1.86-5.13,0-1.36-.2-2.47-.6-3.33-.4-.86-.95-1.53-1.65-2.01-.7-.48-1.5-.8-2.4-.96-.9-.16-1.83-.24-2.79-.24h-12.18v13.38Z" fill="#fff"/><path d="M587.29,100.62c0,1.64,.28,3.04,.84,4.2,.56,1.16,1.34,2.11,2.34,2.85,1,.74,2.15,1.28,3.45,1.62,1.3,.34,2.71,.51,4.23,.51,1.64,0,3.04-.19,4.2-.57,1.16-.38,2.1-.87,2.82-1.47,.72-.6,1.24-1.29,1.56-2.07,.32-.78,.48-1.57,.48-2.37,0-1.64-.37-2.85-1.11-3.63-.74-.78-1.55-1.33-2.43-1.65-1.52-.56-3.29-1.09-5.31-1.59-2.02-.5-4.51-1.15-7.47-1.95-1.84-.48-3.37-1.11-4.59-1.89-1.22-.78-2.19-1.65-2.91-2.61s-1.23-1.98-1.53-3.06-.45-2.18-.45-3.3c0-2.16,.45-4.03,1.35-5.61,.9-1.58,2.09-2.89,3.57-3.93s3.16-1.81,5.04-2.31c1.88-.5,3.78-.75,5.7-.75,2.24,0,4.35,.29,6.33,.87,1.98,.58,3.72,1.45,5.22,2.61s2.69,2.59,3.57,4.29,1.32,3.67,1.32,5.91h-7.5c-.2-2.76-1.14-4.71-2.82-5.85-1.68-1.14-3.82-1.71-6.42-1.71-.88,0-1.78,.09-2.7,.27-.92,.18-1.76,.48-2.52,.9-.76,.42-1.39,.99-1.89,1.71-.5,.72-.75,1.62-.75,2.7,0,1.52,.47,2.71,1.41,3.57,.94,.86,2.17,1.51,3.69,1.95,.16,.04,.79,.21,1.89,.51,1.1,.3,2.33,.63,3.69,.99,1.36,.36,2.69,.71,3.99,1.05s2.23,.59,2.79,.75c1.4,.44,2.62,1.04,3.66,1.8,1.04,.76,1.91,1.63,2.61,2.61,.7,.98,1.22,2.03,1.56,3.15,.34,1.12,.51,2.24,.51,3.36,0,2.4-.49,4.45-1.47,6.15s-2.27,3.09-3.87,4.17-3.42,1.87-5.46,2.37c-2.04,.5-4.12,.75-6.24,.75-2.44,0-4.74-.3-6.9-.9-2.16-.6-4.04-1.52-5.64-2.76-1.6-1.24-2.88-2.83-3.84-4.77-.96-1.94-1.46-4.23-1.5-6.87h7.5Z" fill="#fff"/><path d="M621.07,72.06h7.5v17.04h19.5v-17.04h7.5v42.84h-7.5v-19.32h-19.5v19.32h-7.5v-42.84Z" fill="#fff"/><path d="M664.57,72.06h7.5v42.84h-7.5v-42.84Z" fill="#fff"/><path d="M681.25,72.06h18.9c3.04,0,5.52,.44,7.44,1.32s3.4,1.98,4.44,3.3c1.04,1.32,1.75,2.76,2.13,4.32,.38,1.56,.57,3,.57,4.32s-.19,2.75-.57,4.29c-.38,1.54-1.09,2.97-2.13,4.29s-2.52,2.41-4.44,3.27c-1.92,.86-4.4,1.29-7.44,1.29h-11.4v16.44h-7.5v-42.84Zm7.5,20.28h10.98c.84,0,1.7-.12,2.58-.36,.88-.24,1.69-.63,2.43-1.17s1.34-1.26,1.8-2.16,.69-2.03,.69-3.39-.2-2.56-.6-3.48c-.4-.92-.94-1.65-1.62-2.19-.68-.54-1.46-.91-2.34-1.11-.88-.2-1.82-.3-2.82-.3h-11.1v14.16Z" fill="#fff"/></g></g></svg>