<?xml version="1.0" encoding="UTF-8"?><svg id="_レイヤー_2" xmlns="http://www.w3.org/2000/svg" viewBox="0 0 1288.98 274.6"><defs><style>.cls-1{fill:#fff;}</style></defs><g id="CONTENTS"><g><polygon class="cls-1" points="268.51 49.25 348.7 49.25 348.7 274.6 403.43 274.6 403.43 49.25 484 49.25 484 0 268.51 0 268.51 49.25"/><polygon class="cls-1" points="508.58 274.6 700.04 274.6 700.04 225.35 563.31 225.35 563.31 161.92 685.54 161.92 685.54 112.67 563.31 112.67 563.31 49.25 699.27 49.25 699.27 49.96 700.04 49.96 700.04 0 508.58 0 508.58 274.6"/><path class="cls-1" d="M818.95,0l-102.56,274.6h54.54l119.85-80.42,31.11,80.42h54.54L873.87,0h-54.92Zm27.46,69.41l28.13,82.71-76.18,52.18,48.05-134.9Z"/><polygon class="cls-1" points="1215.37 0 1139.85 206.33 1064.34 0 991.5 0 991.5 274.6 1046.22 274.6 1046.22 89.1 1116.7 274.6 1163.01 274.6 1234.25 86.37 1234.25 274.6 1288.98 274.6 1288.98 0 1215.37 0"/><polygon class="cls-1" points="274.49 137.3 196.03 137.3 117.98 226.69 79.02 182.43 117.69 137.3 78.85 91.99 119.9 46.4 160.13 91.53 237.49 91.53 159.03 0 80.81 0 0 91.53 39.23 137.3 0 183.07 79.24 274.6 157.31 274.6 195.18 229.96 236.15 274.6 313.83 274.6 234.33 184.15 274.49 137.3"/></g></g></svg>