<?xml version="1.0" encoding="utf-8"?>
<!-- Generator: Adobe Illustrator 27.1.1, SVG Export Plug-In . SVG Version: 6.00 Build 0)  -->
<svg version="1.1" id="_レイヤー_2" xmlns="http://www.w3.org/2000/svg" xmlns:xlink="http://www.w3.org/1999/xlink" x="0px"
	 y="0px" viewBox="0 0 123.9 38.7" style="enable-background:new 0 0 123.9 38.7;" xml:space="preserve">
<style type="text/css">
	.st0{fill:#FFFFFF;}
</style>
<g>
	<g>
		<polygon class="st0" points="123.9,13.2 123.9,8.1 104.3,8.1 104.3,35.7 123.9,35.7 123.9,30.7 109.7,30.7 109.7,24.5 122.5,24.5 
			122.5,19.4 109.7,19.4 109.7,13.2 		"/>
		<polygon class="st0" points="121.2,0 116.4,0 111.5,5.7 116.4,5.7 		"/>
		<path class="st0" d="M70.6,26.7c0,3.6-3,6.6-6.6,6.6c-3.6,0-6.6-3-6.6-6.6V8.1H54v18.6c0,5.5,4.5,10,10,10c5.5,0,10-4.5,10-10V8.1
			h-3.4V26.7z"/>
		<polygon class="st0" points="96.7,29.3 82.5,8.1 78,8.1 78,35.7 82,35.7 82,14.5 96.2,35.7 100.6,35.7 100.6,8.1 96.7,8.1 		"/>
		<polygon class="st0" points="39.5,8.1 37,8.1 37,35.7 52.5,35.7 52.5,33.3 39.5,33.3 		"/>
	</g>
	<g>
		<path class="st0" d="M16.8,5.1C7.5,5.1,0,12.6,0,21.9s7.5,16.8,16.8,16.8c9.3,0,16.8-7.5,16.8-16.8S26.1,5.1,16.8,5.1z M16.8,6.8
			c4.5,0,8.5,2,11.3,5.1h-8.4C17,9.6,14.3,8.2,12,7.6C13.5,7.1,15.1,6.8,16.8,6.8z M13.8,30.2H5.6l14.2-16.6H28L13.8,30.2z
			 M24.5,20.4c0.9,1.5,1.6,3,2.1,4.5c-2,1.5-4.5,2.9-7.3,3.9c-0.9,0.3-1.9,0.6-2.8,0.9L24.5,20.4z M9.1,23.4
			c-0.9-1.5-1.6-3.1-2.1-4.5c2.4-1.9,6.2-3.8,10.1-4.8L9.1,23.4z M12,14.1c-2.3,1-3.7,1.8-5.5,3.1c-0.8-3.3-0.4-6.3,1.5-7.4
			c2.1-1.3,5.7-0.3,9.5,2.6C15.9,12.6,13.4,13.5,12,14.1z M4.4,13.3c-0.1,1.5,0.1,3.2,0.6,5c-1.1,0.9-2.4,2.3-3.3,3.9
			C1.7,18.7,2.7,15.8,4.4,13.3z M3.8,29.6c-0.6-0.9-1-1.9-1.4-3c-0.2-0.7-0.1-1.5,0.2-2.4c0.6-1.8,2.1-3.4,2.9-4.1
			C6.2,21.6,7,23.2,8,24.8L3.8,29.6z M16.8,37c-4.5,0-8.5-2-11.3-5.1h8.4c2.6,2.3,5.3,3.8,7.7,4.3C20.1,36.7,18.5,37,16.8,37z
			 M25.7,34.1c-1.7,1.1-5,0.8-9.5-2.6c3.6-0.8,8.2-2.8,10.9-4.9C27.9,30.1,27.5,32.9,25.7,34.1z M25.6,19l4.1-4.8
			c0.2,0.4,0.5,0.8,0.7,1.3c0.2,0.4,0.5,1.3,0.5,1.3c0.7,2-0.5,4.6-3,6.9C27.4,22.2,26.6,20.6,25.6,19z M28.6,25.5
			c1.4-1.3,2.6-2.6,3.3-3.9c0.1,3.2-1,6.5-2.7,8.9C29.3,29,29.1,27.3,28.6,25.5z"/>
	</g>
</g>
</svg>
